PathFileType	4	(X/Y/Z)	C:/Users/opensim2020/Desktop/walking_exp_matlab/subject01_walking07_straight_03.trc	
DataRate	CameraRate	NumFrames	NumMarkers	Units	OrigDataRate	OrigDataStartFrame	OrigNumFrames	
100.00	100.00	8	43	mm	100.00	2118	220	
Frame#	Time	LFHD			RFHD			LBHD			RBHD			C7			T10			CLAV			STRN			RBAK			LSHO			LUPA			LELB			LFRM			LWRA			LWRB			LFIN			RSHO			RUPA			RELB			RFRM			RWRA			RWRB			RFIN			LASI			RASI			LPSI			RPSI			LTHI			LKNE			LTIB			LANK			LHEE			LTOE			RTHI			RKNE			RTIB			RANK			RHEE			RTOE			*39			*40			*41			*42			
		X1	Y1	Z1	X2	Y2	Z2	X3	Y3	Z3	X4	Y4	Z4	X5	Y5	Z5	X6	Y6	Z6	X7	Y7	Z7	X8	Y8	Z8	X9	Y9	Z9	X10	Y10	Z10	X11	Y11	Z11	X12	Y12	Z12	X13	Y13	Z13	X14	Y14	Z14	X15	Y15	Z15	X16	Y16	Z16	X17	Y17	Z17	X18	Y18	Z18	X19	Y19	Z19	X20	Y20	Z20	X21	Y21	Z21	X22	Y22	Z22	X23	Y23	Z23	X24	Y24	Z24	X25	Y25	Z25	X26	Y26	Z26	X27	Y27	Z27	X28	Y28	Z28	X29	Y29	Z29	X30	Y30	Z30	X31	Y31	Z31	X32	Y32	Z32	X33	Y33	Z33	X34	Y34	Z34	X35	Y35	Z35	X36	Y36	Z36	X37	Y37	Z37	X38	Y38	Z38	X39	Y39	Z39	X40	Y40	Z40	X41	Y41	Z41	X42	Y42	Z42	X43	Y43	Z43	

83	0.820	1414.49976	-247.11192	1673.00281	1522.31738	-209.95308	1681.75928	1448.39832	-356.19168	1621.37012	1563.01343	-319.61365	1629.45239	1483.92981	-376.42572	1430.33606	1496.52869	-406.80054	1137.44312	1472.35535	-232.12323	1365.38062	1463.09534	-188.12126	1210.39429	1564.25989	-421.25717	1235.66846	1317.05774	-302.93356	1392.74487	1233.22827	-330.08676	1207.83435	1230.04260	-336.55649	1055.33936	1204.95825	-280.34680	954.43329	1220.74695	-180.76303	858.09210	1199.94055	-234.09648	841.42371	1187.24670	-172.88940	784.82538	1629.04944	-282.95813	1393.32117	1731.20300	-340.00912	1193.69897	1732.89160	-342.41403	1069.88269	1765.12463	-322.64621	952.27063	1749.98218	-249.83519	829.94861	1788.15027	-294.16986	834.76581	1786.60620	-264.05688	753.80115	1368.01331	-249.48145	930.13666	1582.34607	-218.89067	935.55646	1446.72742	-426.70853	940.84076	1590.51965	-404.68994	947.47406	1303.10547	-263.82306	597.64392	1308.55444	-267.34271	464.83365	1306.63831	-413.20181	351.80481	1365.82092	-574.84418	207.49165	1425.06726	-614.84027	222.60051	1363.53210	-528.72064	65.64977	1637.52551	-240.04128	602.77612	1603.83582	-215.80208	447.51532	1610.13989	-257.17349	275.01764	1554.62268	-273.08200	72.06216	1507.05786	-324.54016	34.55691	1548.09058	-132.66286	34.94273	1503.05579	-228.60915	1714.22229	-3101.89648	1973.21814	1023.43188	-3140.64502	2012.56775	1022.04535			 
84	0.830	1414.69775	-237.76775	1673.55151	1522.46802	-200.39890	1682.24878	1448.79834	-346.84216	1621.96765	1563.32886	-310.01599	1630.04285	1484.52563	-367.28769	1431.01733	1497.31677	-398.00824	1138.13245	1472.38550	-223.07729	1365.82544	1463.35107	-179.32584	1210.77588	1565.13586	-412.00052	1236.33533	1317.35474	-294.54037	1393.25000	1234.22095	-323.55042	1208.20032	1231.52881	-330.67444	1055.97534	1206.52405	-276.96750	953.96954	1222.27661	-179.84845	855.16412	1201.55017	-233.56836	839.79486	1189.20215	-173.74649	781.39172	1629.29053	-273.25305	1393.95190	1732.24084	-328.05386	1194.19116	1734.27893	-329.64896	1070.31421	1766.31018	-307.93176	952.96204	1750.22961	-233.83549	831.60651	1789.02527	-277.61087	835.86108	1787.24756	-246.44185	755.35974	1368.75085	-240.27351	931.13531	1582.99756	-211.07387	935.67279	1446.61670	-417.99786	941.54236	1590.30554	-396.43820	947.64044	1302.85120	-248.77962	599.93011	1308.34583	-249.45049	467.24408	1306.93701	-394.71353	353.78922	1365.56433	-555.59015	207.90366	1425.73474	-595.82697	221.04053	1358.64502	-506.24084	67.99516	1637.74817	-234.77507	602.76233	1604.05225	-212.21483	446.99673	1610.39648	-254.61864	274.93854	1554.60657	-272.88754	72.09160	1506.90747	-324.80630	35.09185	1548.04187	-132.54185	34.82056	1503.16052	-219.02467	1714.71484	-3101.90430	1973.16223	1023.47626	-3140.67847	2012.49548	1021.95538			 
85	0.840	1414.76355	-228.42068	1673.93555	1522.39441	-190.81155	1682.69666	1449.20288	-337.31662	1622.41553	1563.61157	-300.37863	1630.65027	1485.14307	-358.13837	1431.71143	1497.94458	-389.25674	1138.82898	1472.55994	-214.05351	1366.29980	1463.58679	-170.59059	1211.14209	1566.05994	-402.98886	1237.20007	1317.59717	-286.09875	1393.77930	1235.19800	-316.84866	1208.68005	1233.04895	-325.23361	1056.59375	1208.00977	-273.60782	953.64319	1223.87964	-179.04347	852.39447	1202.83801	-233.39053	838.32849	1190.94946	-174.92581	778.31976	1629.46021	-263.63614	1394.51392	1733.15991	-316.28525	1194.66907	1735.52930	-316.86636	1070.69397	1767.34558	-293.14276	953.63159	1750.40039	-217.71350	833.36627	1789.74927	-261.05795	837.01123	1787.84924	-228.59419	757.14850	1369.35767	-231.35130	932.03851	1584.07202	-202.61224	936.08289	1446.33936	-409.21964	942.40857	1590.27417	-388.57986	948.27448	1302.67419	-233.77003	602.04010	1308.09399	-232.02939	469.50394	1307.27051	-376.19980	355.38840	1365.53638	-535.98328	207.78334	1426.33533	-576.44189	218.21181	1354.49573	-481.86142	69.65333	1637.86304	-229.53256	602.56915	1604.20642	-208.62944	446.54126	1610.44214	-252.08995	274.70767	1554.57556	-272.78574	72.22625	1507.17432	-324.44833	34.97781	1548.05640	-132.39001	34.68626	1503.18640	-209.42352	1715.20752	-3101.89771	1973.12097	1023.39026	-3140.62036	2012.54688	1022.03333			 
86	0.850	1414.75977	-219.11513	1674.26501	1522.25244	-181.16632	1683.01477	1449.48389	-328.17593	1623.12231	1563.78528	-290.77084	1631.22021	1485.61169	-349.00476	1432.30994	1498.46558	-380.62759	1139.45508	1472.64539	-205.17401	1366.68347	1463.81812	-161.82755	1211.47656	1566.92078	-394.08789	1238.13013	1317.87244	-277.66980	1394.36121	1236.03125	-310.02185	1209.12463	1234.62891	-319.71124	1057.32532	1209.54822	-270.40860	953.35168	1225.57263	-178.40569	849.68683	1204.21191	-233.12045	837.12042	1192.79529	-175.85466	775.51666	1629.61816	-254.18970	1395.08777	1734.02637	-304.66312	1195.20789	1736.73657	-304.18323	1071.15918	1768.29407	-278.33685	954.37744	1750.54492	-201.37677	835.19073	1790.46765	-244.29897	838.33105	1788.36597	-210.61533	759.06915	1370.04858	-222.42334	932.97980	1585.01648	-194.50691	936.37634	1445.92126	-400.46823	943.35223	1589.80591	-380.55774	948.59479	1302.56982	-219.07025	604.01227	1307.77808	-215.04929	471.60098	1307.35059	-358.15982	356.65936	1365.34668	-515.40784	206.26967	1426.66650	-556.76160	214.14543	1350.10645	-456.48438	71.53896	1637.95215	-224.33073	602.34882	1604.25085	-205.17973	445.94958	1610.53247	-249.83521	274.66119	1554.56152	-272.56049	72.26942	1506.95728	-324.63376	35.47200	1548.03333	-132.29346	34.63452	1503.06677	-199.77090	1715.58594	-3101.91162	1973.13281	1023.60120	-3140.79150	2012.55579	1022.03839			 
87	0.860	1414.62195	-209.80315	1674.50085	1522.03979	-171.56621	1683.30273	1449.70923	-318.61935	1623.48083	1563.88220	-281.15668	1631.73328	1486.15918	-340.00970	1432.88489	1498.83728	-372.01093	1140.03430	1472.78931	-196.22307	1367.06750	1464.02063	-153.16823	1211.80774	1567.65112	-385.12198	1238.89795	1318.11719	-269.18164	1394.79333	1236.71643	-303.21619	1209.61560	1236.21802	-314.39890	1058.01172	1211.02454	-267.36737	953.16461	1227.17786	-177.75189	847.23352	1205.59204	-232.71611	835.99420	1194.51489	-177.01599	772.87616	1629.74194	-244.85271	1395.63074	1734.78088	-293.22079	1195.73621	1737.82642	-291.62662	1071.54749	1769.17017	-263.62485	955.14008	1750.63708	-185.11746	837.16357	1791.00195	-227.58640	839.55817	1788.83081	-192.60100	761.04846	1370.82825	-213.41129	933.97302	1586.00916	-186.38469	936.68481	1445.41089	-391.76282	944.35486	1589.43835	-372.56033	949.01831	1302.46777	-204.74706	606.20569	1307.43909	-198.50075	473.82690	1307.41565	-340.50354	357.61295	1365.22339	-494.35931	203.95508	1426.77307	-536.40204	209.00156	1346.16736	-429.87067	72.84879	1637.98840	-219.17314	602.06964	1604.57349	-201.61861	445.54004	1610.70190	-247.97670	274.61844	1554.47827	-272.40869	72.31224	1506.84534	-324.59729	35.50618	1548.09326	-132.19267	34.49861	1502.95471	-190.11447	1715.97766	-3101.74268	1973.13379	1023.37793	-3140.52588	2012.57581	1022.19836			 
88	0.870	1414.43201	-200.40440	1674.77332	1521.71326	-161.89812	1683.48132	1449.84912	-309.48956	1624.08557	1563.93555	-271.49152	1632.25549	1486.45996	-331.07217	1433.24780	1499.12903	-363.46774	1140.52441	1472.78711	-187.39395	1367.39893	1464.19714	-144.47585	1212.11475	1568.36121	-376.25003	1239.58887	1318.34265	-260.62750	1395.24414	1237.33752	-296.12067	1210.14307	1237.79846	-308.97113	1058.74463	1212.46558	-264.40442	952.92108	1228.77185	-177.42720	844.76569	1206.95410	-232.36830	835.02148	1196.25354	-178.19099	770.41449	1629.84241	-235.54193	1396.16748	1735.48438	-281.90903	1196.23352	1738.77612	-279.18320	1071.88806	1769.95044	-248.99049	955.95154	1750.65955	-168.85098	839.24817	1791.50403	-210.88629	841.02411	1789.17505	-174.52751	763.17358	1371.59924	-204.48549	934.96350	1587.21448	-178.25375	936.74683	1444.80847	-382.91156	945.04602	1589.02185	-364.68613	949.50079	1302.36914	-190.75841	608.42719	1307.29321	-182.73631	475.96051	1307.82642	-322.74704	357.89127	1365.00183	-472.64633	200.72079	1426.70874	-515.21606	202.93124	1342.90100	-403.06284	73.21159	1637.98682	-214.03142	601.78625	1604.87732	-198.19942	445.10312	1610.83191	-246.40549	274.58331	1554.58960	-272.22424	72.49284	1506.93420	-324.46771	35.89883	1548.13794	-132.08130	34.48851	1502.57617	-180.40958	1716.11316	-3101.90283	1973.18970	1023.32574	-3140.71655	2012.56470	1021.99329			 
89	0.880	1414.13647	-191.09134	1674.82117	1521.36365	-152.22673	1683.63062	1449.97241	-300.00024	1624.49451	1563.95679	-261.82028	1632.75415	1486.84338	-322.19177	1433.71545	1499.35559	-354.97806	1141.09143	1472.85205	-178.52310	1367.71008	1464.33765	-135.79927	1212.37024	1568.93445	-367.27527	1240.16284	1318.54565	-252.09164	1395.65625	1237.94641	-289.04861	1210.54968	1239.30469	-303.73935	1059.54749	1213.86890	-261.53839	952.74365	1230.32739	-176.76701	842.68610	1208.34534	-232.14084	834.15619	1197.83179	-179.22968	768.36664	1629.89990	-226.33449	1396.69580	1736.10669	-270.84006	1196.71716	1739.59705	-266.88760	1072.23376	1770.65173	-234.45444	956.75946	1750.66028	-152.51987	841.43225	1791.89624	-194.22955	842.59637	1789.52246	-156.44710	765.58759	1372.31982	-195.49553	935.89728	1588.39600	-169.99620	937.06488	1444.23169	-374.23190	945.74847	1588.52271	-356.86621	949.96338	1302.14685	-177.13219	610.71533	1307.18201	-167.34988	478.49539	1308.33081	-304.94791	357.49371	1364.63477	-450.16959	196.44612	1426.51038	-493.16812	196.05968	1339.96997	-375.89542	72.91052	1637.83948	-208.21735	601.44507	1604.78845	-195.17406	444.46036	1610.98096	-244.74536	274.57315	1554.41602	-272.00632	72.56133	1506.88525	-324.36545	36.28815	1548.14490	-131.94669	34.39058	1502.32153	-170.63033	1716.45239	-3101.98486	1973.16443	1023.40045	-3140.65771	2012.60144	1022.03052			 
90	0.890	1413.80811	-181.69536	1674.94080	1520.94580	-142.53371	1683.74268	1449.98779	-290.84686	1625.03711	1563.86572	-252.17828	1633.23535	1487.14734	-313.19135	1434.08398	1499.60986	-346.61063	1141.69153	1472.84875	-169.67221	1368.00671	1464.43201	-127.10867	1212.61792	1569.47192	-358.34479	1240.71228	1318.66541	-243.54024	1395.99219	1238.48083	-281.86621	1210.94421	1240.71558	-298.36493	1060.25684	1215.01245	-259.03522	952.60791	1231.45557	-176.50354	840.29620	1209.74353	-231.85130	833.39520	1199.59338	-180.53383	766.10846	1629.96863	-217.12285	1397.16235	1736.59180	-259.93082	1197.15552	1740.33289	-254.71378	1072.54773	1771.17981	-220.13109	957.53284	1750.53992	-136.42638	843.68768	1792.16907	-177.73764	844.14227	1789.70923	-138.32108	767.93579	1373.13232	-186.60947	936.80804	1589.31738	-162.10954	937.13470	1443.69238	-365.62335	946.42938	1588.27820	-349.46420	950.62811	1301.81519	-163.66983	613.01367	1307.25024	-152.34538	481.03931	1308.86292	-287.08728	356.58392	1364.31750	-427.27057	191.31616	1426.38562	-470.30988	188.48734	1337.21814	-348.26633	71.64486	1637.91052	-203.30400	600.94843	1605.06873	-191.86383	444.08255	1611.16797	-243.54079	274.61816	1554.23120	-271.66818	72.70808	1506.79858	-324.23230	36.62668	1548.14038	-131.79335	34.32838	1501.81616	-160.99471	1716.46790	-3101.87891	1973.07849	1023.82410	-3140.73608	2012.46777	1021.98883			 
